<mxfile host="app.diagrams.net" agent="Mozilla/5.0 (Windows NT 10.0; Win64; x64) AppleWebKit/537.36 (KHTML, like Gecko) Chrome/133.0.0.0 Safari/537.36" version="26.0.16">
  <diagram id="C5RBs43oDa-KdzZeNtuy" name="Page-1">
    <mxGraphModel dx="2333" dy="2329" grid="1" gridSize="10" guides="1" tooltips="1" connect="1" arrows="1" fold="1" page="1" pageScale="1" pageWidth="827" pageHeight="1169" math="0" shadow="0">
      <root>
        <mxCell id="WIyWlLk6GJQsqaUBKTNV-0" />
        <mxCell id="WIyWlLk6GJQsqaUBKTNV-1" parent="WIyWlLk6GJQsqaUBKTNV-0" />
        <mxCell id="zkfFHV4jXpPFQw0GAbJ--0" value="CatalogueFileIO" style="swimlane;fontStyle=3;align=center;verticalAlign=top;childLayout=stackLayout;horizontal=1;startSize=26;horizontalStack=0;resizeParent=1;resizeLast=0;collapsible=1;marginBottom=0;rounded=0;shadow=0;strokeWidth=1;" parent="WIyWlLk6GJQsqaUBKTNV-1" vertex="1">
          <mxGeometry x="360" y="120" width="330" height="274" as="geometry">
            <mxRectangle x="230" y="140" width="160" height="26" as="alternateBounds" />
          </mxGeometry>
        </mxCell>
        <mxCell id="t31mzmj0vleYuocfdP23-14" value="&lt;div&gt;+UI: CatalogueU[1] = null&lt;/div&gt;" style="text;html=1;align=center;verticalAlign=middle;whiteSpace=wrap;rounded=0;" parent="zkfFHV4jXpPFQw0GAbJ--0" vertex="1">
          <mxGeometry y="26" width="330" height="30" as="geometry" />
        </mxCell>
        <mxCell id="t31mzmj0vleYuocfdP23-15" value="-csvFile: File[1] = null" style="text;html=1;align=center;verticalAlign=middle;whiteSpace=wrap;rounded=0;" parent="zkfFHV4jXpPFQw0GAbJ--0" vertex="1">
          <mxGeometry y="56" width="330" height="30" as="geometry" />
        </mxCell>
        <mxCell id="t31mzmj0vleYuocfdP23-13" value="&lt;div&gt;-fileName: string[1] = &quot;&quot;&lt;/div&gt;&lt;div&gt;&lt;br&gt;&lt;/div&gt;" style="text;html=1;align=center;verticalAlign=middle;whiteSpace=wrap;rounded=0;" parent="zkfFHV4jXpPFQw0GAbJ--0" vertex="1">
          <mxGeometry y="86" width="330" height="30" as="geometry" />
        </mxCell>
        <mxCell id="zkfFHV4jXpPFQw0GAbJ--4" value="" style="line;html=1;strokeWidth=1;align=left;verticalAlign=middle;spacingTop=-1;spacingLeft=3;spacingRight=3;rotatable=0;labelPosition=right;points=[];portConstraint=eastwest;" parent="zkfFHV4jXpPFQw0GAbJ--0" vertex="1">
          <mxGeometry y="116" width="330" height="8" as="geometry" />
        </mxCell>
        <mxCell id="t31mzmj0vleYuocfdP23-16" value="+CatalogueFileIO (fileName : String, catalogueUI : CatalogueUI) : CatalogueFileIO" style="text;html=1;align=center;verticalAlign=middle;whiteSpace=wrap;rounded=0;" parent="zkfFHV4jXpPFQw0GAbJ--0" vertex="1">
          <mxGeometry y="124" width="330" height="30" as="geometry" />
        </mxCell>
        <mxCell id="t31mzmj0vleYuocfdP23-18" value="+loadFile()" style="text;html=1;align=center;verticalAlign=middle;whiteSpace=wrap;rounded=0;" parent="zkfFHV4jXpPFQw0GAbJ--0" vertex="1">
          <mxGeometry y="154" width="330" height="30" as="geometry" />
        </mxCell>
        <mxCell id="t31mzmj0vleYuocfdP23-19" value="+addCSVLine(newLine : String)" style="text;html=1;align=center;verticalAlign=middle;whiteSpace=wrap;rounded=0;" parent="zkfFHV4jXpPFQw0GAbJ--0" vertex="1">
          <mxGeometry y="184" width="330" height="30" as="geometry" />
        </mxCell>
        <mxCell id="t31mzmj0vleYuocfdP23-21" value="+editCSVLine(lineID : String, newLine : String)" style="text;html=1;align=center;verticalAlign=middle;whiteSpace=wrap;rounded=0;" parent="zkfFHV4jXpPFQw0GAbJ--0" vertex="1">
          <mxGeometry y="214" width="330" height="30" as="geometry" />
        </mxCell>
        <mxCell id="t31mzmj0vleYuocfdP23-20" value="+deleteCSVLine(lineID : String)" style="text;html=1;align=center;verticalAlign=middle;whiteSpace=wrap;rounded=0;" parent="zkfFHV4jXpPFQw0GAbJ--0" vertex="1">
          <mxGeometry y="244" width="330" height="30" as="geometry" />
        </mxCell>
        <mxCell id="zkfFHV4jXpPFQw0GAbJ--6" value="Furniture" style="swimlane;fontStyle=1;align=center;verticalAlign=top;childLayout=stackLayout;horizontal=1;startSize=26;horizontalStack=0;resizeParent=1;resizeLast=0;collapsible=1;marginBottom=0;rounded=0;shadow=0;strokeWidth=1;" parent="WIyWlLk6GJQsqaUBKTNV-1" vertex="1">
          <mxGeometry x="460" y="517" width="130" height="300" as="geometry">
            <mxRectangle x="130" y="380" width="160" height="26" as="alternateBounds" />
          </mxGeometry>
        </mxCell>
        <mxCell id="zkfFHV4jXpPFQw0GAbJ--7" value="-id: int[1] = 0" style="text;align=left;verticalAlign=top;spacingLeft=4;spacingRight=4;overflow=hidden;rotatable=0;points=[[0,0.5],[1,0.5]];portConstraint=eastwest;" parent="zkfFHV4jXpPFQw0GAbJ--6" vertex="1">
          <mxGeometry y="26" width="130" height="34" as="geometry" />
        </mxCell>
        <mxCell id="t31mzmj0vleYuocfdP23-1" value="+price: float[1] = 0.0" style="text;html=1;align=center;verticalAlign=middle;whiteSpace=wrap;rounded=0;" parent="zkfFHV4jXpPFQw0GAbJ--6" vertex="1">
          <mxGeometry y="60" width="130" height="30" as="geometry" />
        </mxCell>
        <mxCell id="t31mzmj0vleYuocfdP23-2" value="+type: string[1] = &quot;&quot;" style="text;html=1;align=center;verticalAlign=middle;whiteSpace=wrap;rounded=0;" parent="zkfFHV4jXpPFQw0GAbJ--6" vertex="1">
          <mxGeometry y="90" width="130" height="30" as="geometry" />
        </mxCell>
        <mxCell id="t31mzmj0vleYuocfdP23-3" value="+colour: string[1] = &quot;&quot;" style="text;html=1;align=center;verticalAlign=middle;whiteSpace=wrap;rounded=0;" parent="zkfFHV4jXpPFQw0GAbJ--6" vertex="1">
          <mxGeometry y="120" width="130" height="30" as="geometry" />
        </mxCell>
        <mxCell id="t31mzmj0vleYuocfdP23-4" value="+materials: string[1] = &quot;&quot;" style="text;html=1;align=center;verticalAlign=middle;whiteSpace=wrap;rounded=0;" parent="zkfFHV4jXpPFQw0GAbJ--6" vertex="1">
          <mxGeometry y="150" width="130" height="30" as="geometry" />
        </mxCell>
        <mxCell id="t31mzmj0vleYuocfdP23-8" value="+size: string[1] = &quot;&quot;" style="text;html=1;align=center;verticalAlign=middle;whiteSpace=wrap;rounded=0;" parent="zkfFHV4jXpPFQw0GAbJ--6" vertex="1">
          <mxGeometry y="180" width="130" height="30" as="geometry" />
        </mxCell>
        <mxCell id="t31mzmj0vleYuocfdP23-6" value="+company: string[1] = &quot;&quot;" style="text;html=1;align=center;verticalAlign=middle;whiteSpace=wrap;rounded=0;" parent="zkfFHV4jXpPFQw0GAbJ--6" vertex="1">
          <mxGeometry y="210" width="130" height="30" as="geometry" />
        </mxCell>
        <mxCell id="t31mzmj0vleYuocfdP23-9" value="+weight: float[1] = 0.0" style="text;html=1;align=center;verticalAlign=middle;whiteSpace=wrap;rounded=0;" parent="zkfFHV4jXpPFQw0GAbJ--6" vertex="1">
          <mxGeometry y="240" width="130" height="30" as="geometry" />
        </mxCell>
        <mxCell id="t31mzmj0vleYuocfdP23-11" value="+style: string[1] = &quot;&quot;" style="text;html=1;align=center;verticalAlign=middle;whiteSpace=wrap;rounded=0;" parent="zkfFHV4jXpPFQw0GAbJ--6" vertex="1">
          <mxGeometry y="270" width="130" height="30" as="geometry" />
        </mxCell>
        <mxCell id="zkfFHV4jXpPFQw0GAbJ--17" value="CatalogueUI" style="swimlane;fontStyle=3;align=center;verticalAlign=top;childLayout=stackLayout;horizontal=1;startSize=26;horizontalStack=0;resizeParent=1;resizeLast=0;collapsible=1;marginBottom=0;rounded=0;shadow=0;strokeWidth=1;" parent="WIyWlLk6GJQsqaUBKTNV-1" vertex="1">
          <mxGeometry x="818" y="120" width="232" height="424" as="geometry">
            <mxRectangle x="550" y="140" width="160" height="26" as="alternateBounds" />
          </mxGeometry>
        </mxCell>
        <mxCell id="t31mzmj0vleYuocfdP23-22" value="+catalogue : HashMap &amp;lt;Integer, ArrayList&amp;lt;String&amp;gt;&amp;gt;[1] = null" style="text;html=1;align=center;verticalAlign=middle;whiteSpace=wrap;rounded=0;" parent="zkfFHV4jXpPFQw0GAbJ--17" vertex="1">
          <mxGeometry y="26" width="232" height="30" as="geometry" />
        </mxCell>
        <mxCell id="t31mzmj0vleYuocfdP23-24" value="+fileIO : CatalogueFileIO[1] = null" style="text;html=1;align=center;verticalAlign=middle;whiteSpace=wrap;rounded=0;" parent="zkfFHV4jXpPFQw0GAbJ--17" vertex="1">
          <mxGeometry y="56" width="232" height="30" as="geometry" />
        </mxCell>
        <mxCell id="t31mzmj0vleYuocfdP23-26" value="+headers : String[0...n] = null" style="text;html=1;align=center;verticalAlign=middle;whiteSpace=wrap;rounded=0;" parent="zkfFHV4jXpPFQw0GAbJ--17" vertex="1">
          <mxGeometry y="86" width="232" height="30" as="geometry" />
        </mxCell>
        <mxCell id="t31mzmj0vleYuocfdP23-27" value="-s : Scanner[1] = null" style="text;html=1;align=center;verticalAlign=middle;whiteSpace=wrap;rounded=0;" parent="zkfFHV4jXpPFQw0GAbJ--17" vertex="1">
          <mxGeometry y="116" width="232" height="30" as="geometry" />
        </mxCell>
        <mxCell id="I-7PGxU8D5L3A5D0XDUW-22" value="-searchCon: SearchController[1] = null" style="text;html=1;align=center;verticalAlign=middle;whiteSpace=wrap;rounded=0;" parent="zkfFHV4jXpPFQw0GAbJ--17" vertex="1">
          <mxGeometry y="146" width="232" height="30" as="geometry" />
        </mxCell>
        <mxCell id="zkfFHV4jXpPFQw0GAbJ--23" value="" style="line;html=1;strokeWidth=1;align=left;verticalAlign=middle;spacingTop=-1;spacingLeft=3;spacingRight=3;rotatable=0;labelPosition=right;points=[];portConstraint=eastwest;" parent="zkfFHV4jXpPFQw0GAbJ--17" vertex="1">
          <mxGeometry y="176" width="232" height="8" as="geometry" />
        </mxCell>
        <mxCell id="t31mzmj0vleYuocfdP23-28" value="+CatalogueUI (fileName : String, catalogueUI : this) : CatalogueUI" style="text;html=1;align=center;verticalAlign=middle;whiteSpace=wrap;rounded=0;" parent="zkfFHV4jXpPFQw0GAbJ--17" vertex="1">
          <mxGeometry y="184" width="232" height="30" as="geometry" />
        </mxCell>
        <mxCell id="t31mzmj0vleYuocfdP23-29" value="+commandLineMenu()" style="text;html=1;align=center;verticalAlign=middle;whiteSpace=wrap;rounded=0;" parent="zkfFHV4jXpPFQw0GAbJ--17" vertex="1">
          <mxGeometry y="214" width="232" height="30" as="geometry" />
        </mxCell>
        <mxCell id="t31mzmj0vleYuocfdP23-32" value="+displayEntries()" style="text;html=1;align=center;verticalAlign=middle;whiteSpace=wrap;rounded=0;" parent="zkfFHV4jXpPFQw0GAbJ--17" vertex="1">
          <mxGeometry y="244" width="232" height="30" as="geometry" />
        </mxCell>
        <mxCell id="t31mzmj0vleYuocfdP23-33" value="+viewEntry()" style="text;html=1;align=center;verticalAlign=middle;whiteSpace=wrap;rounded=0;" parent="zkfFHV4jXpPFQw0GAbJ--17" vertex="1">
          <mxGeometry y="274" width="232" height="30" as="geometry" />
        </mxCell>
        <mxCell id="t31mzmj0vleYuocfdP23-34" value="+editEntry()" style="text;html=1;align=center;verticalAlign=middle;whiteSpace=wrap;rounded=0;" parent="zkfFHV4jXpPFQw0GAbJ--17" vertex="1">
          <mxGeometry y="304" width="232" height="30" as="geometry" />
        </mxCell>
        <mxCell id="t31mzmj0vleYuocfdP23-31" value="+addEntry()" style="text;html=1;align=center;verticalAlign=middle;whiteSpace=wrap;rounded=0;" parent="zkfFHV4jXpPFQw0GAbJ--17" vertex="1">
          <mxGeometry y="334" width="232" height="30" as="geometry" />
        </mxCell>
        <mxCell id="t31mzmj0vleYuocfdP23-36" value="+removeEntry()" style="text;html=1;align=center;verticalAlign=middle;whiteSpace=wrap;rounded=0;" parent="zkfFHV4jXpPFQw0GAbJ--17" vertex="1">
          <mxGeometry y="364" width="232" height="30" as="geometry" />
        </mxCell>
        <mxCell id="t31mzmj0vleYuocfdP23-38" value="+printMenu()" style="text;html=1;align=center;verticalAlign=middle;whiteSpace=wrap;rounded=0;" parent="zkfFHV4jXpPFQw0GAbJ--17" vertex="1">
          <mxGeometry y="394" width="232" height="30" as="geometry" />
        </mxCell>
        <mxCell id="zkfFHV4jXpPFQw0GAbJ--26" value="" style="endArrow=open;shadow=0;strokeWidth=1;rounded=0;curved=0;endFill=1;edgeStyle=elbowEdgeStyle;elbow=vertical;startArrow=open;startFill=0;" parent="WIyWlLk6GJQsqaUBKTNV-1" source="zkfFHV4jXpPFQw0GAbJ--0" target="zkfFHV4jXpPFQw0GAbJ--17" edge="1">
          <mxGeometry x="0.5" y="41" relative="1" as="geometry">
            <mxPoint x="690" y="192" as="sourcePoint" />
            <mxPoint x="850" y="192" as="targetPoint" />
            <mxPoint x="-40" y="32" as="offset" />
          </mxGeometry>
        </mxCell>
        <mxCell id="zkfFHV4jXpPFQw0GAbJ--29" value="Is Backend/Frontend" style="text;html=1;resizable=0;points=[];;align=center;verticalAlign=middle;labelBackgroundColor=none;rounded=0;shadow=0;strokeWidth=1;fontSize=12;" parent="zkfFHV4jXpPFQw0GAbJ--26" vertex="1" connectable="0">
          <mxGeometry x="0.5" y="49" relative="1" as="geometry">
            <mxPoint x="-38" y="40" as="offset" />
          </mxGeometry>
        </mxCell>
        <mxCell id="t31mzmj0vleYuocfdP23-17" value="" style="endArrow=classic;html=1;rounded=0;startArrow=diamondThin;startFill=1;entryX=0.421;entryY=1;entryDx=0;entryDy=0;entryPerimeter=0;" parent="WIyWlLk6GJQsqaUBKTNV-1" edge="1">
          <mxGeometry width="50" height="50" relative="1" as="geometry">
            <mxPoint x="525.53" y="517" as="sourcePoint" />
            <mxPoint x="524.46" y="394" as="targetPoint" />
          </mxGeometry>
        </mxCell>
        <mxCell id="OyZKprMA5SsI55dwhn69-0" value="SearchView" style="swimlane;fontStyle=3;align=center;verticalAlign=top;childLayout=stackLayout;horizontal=1;startSize=26;horizontalStack=0;resizeParent=1;resizeLast=0;collapsible=1;marginBottom=0;rounded=0;shadow=0;strokeWidth=1;" parent="WIyWlLk6GJQsqaUBKTNV-1" vertex="1">
          <mxGeometry x="400" y="-200" width="232" height="170" as="geometry">
            <mxRectangle x="550" y="140" width="160" height="26" as="alternateBounds" />
          </mxGeometry>
        </mxCell>
        <mxCell id="OyZKprMA5SsI55dwhn69-1" value="+" style="text;html=1;align=center;verticalAlign=middle;whiteSpace=wrap;rounded=0;" parent="OyZKprMA5SsI55dwhn69-0" vertex="1">
          <mxGeometry y="26" width="232" height="30" as="geometry" />
        </mxCell>
        <mxCell id="OyZKprMA5SsI55dwhn69-5" value="" style="line;html=1;strokeWidth=1;align=left;verticalAlign=middle;spacingTop=-1;spacingLeft=3;spacingRight=3;rotatable=0;labelPosition=right;points=[];portConstraint=eastwest;" parent="OyZKprMA5SsI55dwhn69-0" vertex="1">
          <mxGeometry y="56" width="232" height="8" as="geometry" />
        </mxCell>
        <mxCell id="OyZKprMA5SsI55dwhn69-6" value="+" style="text;html=1;align=center;verticalAlign=middle;whiteSpace=wrap;rounded=0;" parent="OyZKprMA5SsI55dwhn69-0" vertex="1">
          <mxGeometry y="64" width="232" height="30" as="geometry" />
        </mxCell>
        <mxCell id="OyZKprMA5SsI55dwhn69-14" value="SearchModel" style="swimlane;fontStyle=3;align=center;verticalAlign=top;childLayout=stackLayout;horizontal=1;startSize=26;horizontalStack=0;resizeParent=1;resizeLast=0;collapsible=1;marginBottom=0;rounded=0;shadow=0;strokeWidth=1;" parent="WIyWlLk6GJQsqaUBKTNV-1" vertex="1">
          <mxGeometry x="1220" y="-215" width="232" height="170" as="geometry">
            <mxRectangle x="550" y="140" width="160" height="26" as="alternateBounds" />
          </mxGeometry>
        </mxCell>
        <mxCell id="OyZKprMA5SsI55dwhn69-15" value="-fileName: String[1] = &quot;&quot;" style="text;html=1;align=center;verticalAlign=middle;whiteSpace=wrap;rounded=0;" parent="OyZKprMA5SsI55dwhn69-14" vertex="1">
          <mxGeometry y="26" width="232" height="30" as="geometry" />
        </mxCell>
        <mxCell id="OyZKprMA5SsI55dwhn69-16" value="" style="line;html=1;strokeWidth=1;align=left;verticalAlign=middle;spacingTop=-1;spacingLeft=3;spacingRight=3;rotatable=0;labelPosition=right;points=[];portConstraint=eastwest;" parent="OyZKprMA5SsI55dwhn69-14" vertex="1">
          <mxGeometry y="56" width="232" height="8" as="geometry" />
        </mxCell>
        <mxCell id="OyZKprMA5SsI55dwhn69-17" value="&lt;div&gt;+basicQuery():&lt;/div&gt;+advancedQuery(String: filters):" style="text;html=1;align=center;verticalAlign=middle;whiteSpace=wrap;rounded=0;" parent="OyZKprMA5SsI55dwhn69-14" vertex="1">
          <mxGeometry y="64" width="232" height="30" as="geometry" />
        </mxCell>
        <mxCell id="OyZKprMA5SsI55dwhn69-18" value="SearchController" style="swimlane;fontStyle=3;align=center;verticalAlign=top;childLayout=stackLayout;horizontal=1;startSize=30;horizontalStack=0;resizeParent=1;resizeLast=0;collapsible=1;marginBottom=0;rounded=0;shadow=0;strokeWidth=1;" parent="WIyWlLk6GJQsqaUBKTNV-1" vertex="1">
          <mxGeometry x="818" y="-290" width="232" height="320" as="geometry">
            <mxRectangle x="600" y="-350" width="160" height="26" as="alternateBounds" />
          </mxGeometry>
        </mxCell>
        <mxCell id="OyZKprMA5SsI55dwhn69-19" value="-model: SearchModel[1] = null&lt;div&gt;-view: SearchView[1] = null&lt;/div&gt;&lt;div&gt;#query: String[1] = &quot;&quot;&lt;/div&gt;&lt;div&gt;#sortCategory: String[1] = &quot;ID&quot;&lt;/div&gt;&lt;div&gt;#sortMode: boolean[1] = true&lt;/div&gt;&lt;div&gt;#filters: HashMap&amp;lt;String, String&amp;gt;[1] = null&lt;/div&gt;" style="text;html=1;align=center;verticalAlign=middle;whiteSpace=wrap;rounded=0;" parent="OyZKprMA5SsI55dwhn69-18" vertex="1">
          <mxGeometry y="30" width="232" height="90" as="geometry" />
        </mxCell>
        <mxCell id="OyZKprMA5SsI55dwhn69-20" value="" style="line;html=1;strokeWidth=1;align=left;verticalAlign=middle;spacingTop=-1;spacingLeft=3;spacingRight=3;rotatable=0;labelPosition=right;points=[];portConstraint=eastwest;" parent="OyZKprMA5SsI55dwhn69-18" vertex="1">
          <mxGeometry y="120" width="232" height="8" as="geometry" />
        </mxCell>
        <mxCell id="OyZKprMA5SsI55dwhn69-21" value="+searchQuery(): void&lt;div&gt;+ getSearchView(): SearchView&lt;/div&gt;" style="text;html=1;align=center;verticalAlign=middle;whiteSpace=wrap;rounded=0;" parent="OyZKprMA5SsI55dwhn69-18" vertex="1">
          <mxGeometry y="128" width="232" height="146" as="geometry" />
        </mxCell>
        <mxCell id="I-7PGxU8D5L3A5D0XDUW-0" value="Note: While the search code is layed out as such in anticipation for the gui, as this is not planned&lt;div&gt;until iteration 3 most connection between the controller and view is not written out yet.&lt;/div&gt;" style="text;html=1;align=center;verticalAlign=middle;whiteSpace=wrap;rounded=0;" parent="WIyWlLk6GJQsqaUBKTNV-1" vertex="1">
          <mxGeometry x="690" y="-340" width="520" height="30" as="geometry" />
        </mxCell>
        <mxCell id="I-7PGxU8D5L3A5D0XDUW-1" value="JPanel" style="swimlane;fontStyle=3;align=center;verticalAlign=top;childLayout=stackLayout;horizontal=1;startSize=26;horizontalStack=0;resizeParent=1;resizeLast=0;collapsible=1;marginBottom=0;rounded=0;shadow=0;strokeWidth=1;" parent="WIyWlLk6GJQsqaUBKTNV-1" vertex="1">
          <mxGeometry x="400" y="-310" width="232" height="34" as="geometry">
            <mxRectangle x="550" y="140" width="160" height="26" as="alternateBounds" />
          </mxGeometry>
        </mxCell>
        <mxCell id="I-7PGxU8D5L3A5D0XDUW-3" value="" style="line;html=1;strokeWidth=1;align=left;verticalAlign=middle;spacingTop=-1;spacingLeft=3;spacingRight=3;rotatable=0;labelPosition=right;points=[];portConstraint=eastwest;" parent="I-7PGxU8D5L3A5D0XDUW-1" vertex="1">
          <mxGeometry y="26" width="232" height="8" as="geometry" />
        </mxCell>
        <mxCell id="I-7PGxU8D5L3A5D0XDUW-5" value="" style="endArrow=block;html=1;rounded=0;entryX=0.5;entryY=0;entryDx=0;entryDy=0;exitX=0.502;exitY=0.554;exitDx=0;exitDy=0;exitPerimeter=0;endFill=1;" parent="WIyWlLk6GJQsqaUBKTNV-1" source="I-7PGxU8D5L3A5D0XDUW-3" target="OyZKprMA5SsI55dwhn69-0" edge="1">
          <mxGeometry width="50" height="50" relative="1" as="geometry">
            <mxPoint x="515.29" y="-276" as="sourcePoint" />
            <mxPoint x="520" y="-200" as="targetPoint" />
          </mxGeometry>
        </mxCell>
        <mxCell id="I-7PGxU8D5L3A5D0XDUW-8" value="" style="endArrow=open;html=1;rounded=0;endFill=0;startArrow=diamondThin;startFill=0;strokeWidth=1;" parent="WIyWlLk6GJQsqaUBKTNV-1" source="OyZKprMA5SsI55dwhn69-21" edge="1">
          <mxGeometry width="50" height="50" relative="1" as="geometry">
            <mxPoint x="650" y="-40" as="sourcePoint" />
            <mxPoint x="630" y="-90" as="targetPoint" />
          </mxGeometry>
        </mxCell>
        <mxCell id="I-7PGxU8D5L3A5D0XDUW-15" value="1" style="text;html=1;align=center;verticalAlign=middle;whiteSpace=wrap;rounded=0;" parent="WIyWlLk6GJQsqaUBKTNV-1" vertex="1">
          <mxGeometry x="632" y="-80" width="30" height="10" as="geometry" />
        </mxCell>
        <mxCell id="I-7PGxU8D5L3A5D0XDUW-16" value="" style="endArrow=open;html=1;rounded=0;exitX=1;exitY=0.5;exitDx=0;exitDy=0;entryX=0;entryY=0.75;entryDx=0;entryDy=0;endFill=0;startArrow=diamondThin;startFill=0;" parent="WIyWlLk6GJQsqaUBKTNV-1" source="OyZKprMA5SsI55dwhn69-21" target="OyZKprMA5SsI55dwhn69-14" edge="1">
          <mxGeometry width="50" height="50" relative="1" as="geometry">
            <mxPoint x="1070" y="-80" as="sourcePoint" />
            <mxPoint x="1120" y="-130" as="targetPoint" />
          </mxGeometry>
        </mxCell>
        <mxCell id="I-7PGxU8D5L3A5D0XDUW-18" value="1" style="text;html=1;align=center;verticalAlign=middle;whiteSpace=wrap;rounded=0;" parent="WIyWlLk6GJQsqaUBKTNV-1" vertex="1">
          <mxGeometry x="1190" y="-80" width="30" height="10" as="geometry" />
        </mxCell>
        <mxCell id="I-7PGxU8D5L3A5D0XDUW-19" value="" style="endArrow=open;html=1;rounded=0;exitX=0.5;exitY=0;exitDx=0;exitDy=0;entryX=0.5;entryY=1;entryDx=0;entryDy=0;endFill=0;startArrow=diamondThin;startFill=0;strokeWidth=1;" parent="WIyWlLk6GJQsqaUBKTNV-1" source="zkfFHV4jXpPFQw0GAbJ--17" target="OyZKprMA5SsI55dwhn69-18" edge="1">
          <mxGeometry width="50" height="50" relative="1" as="geometry">
            <mxPoint x="940" y="110" as="sourcePoint" />
            <mxPoint x="934" y="-30" as="targetPoint" />
          </mxGeometry>
        </mxCell>
        <mxCell id="I-7PGxU8D5L3A5D0XDUW-24" value="1" style="text;html=1;align=center;verticalAlign=middle;whiteSpace=wrap;rounded=0;" parent="WIyWlLk6GJQsqaUBKTNV-1" vertex="1">
          <mxGeometry x="935" y="40" width="30" height="10" as="geometry" />
        </mxCell>
      </root>
    </mxGraphModel>
  </diagram>
</mxfile>
